<?xml version="1.0" standalone="no"?>
<!DOCTYPE svg PUBLIC "-//W3C//DTD SVG 20010904//EN"
 "http://www.w3.org/TR/2001/REC-SVG-20010904/DTD/svg10.dtd">
<svg version="1.0" xmlns="http://www.w3.org/2000/svg"
 width="3901.000000pt" height="3132.000000pt" viewBox="0 0 3901.000000 3132.000000"
 preserveAspectRatio="xMidYMid meet">

<g transform="translate(0.000000,3132.000000) scale(0.100000,-0.100000)"
fill="#000000" stroke="none">
<path d="M10230 14844 c-932 -82 -1728 -407 -2435 -995 -135 -112 -399 -378
-517 -519 -430 -518 -719 -1090 -878 -1740 -390 -1598 190 -3293 1480 -4325
791 -633 1754 -957 2765 -932 345 9 594 42 921 122 928 228 1752 764 2348
1529 104 134 269 383 357 541 476 854 641 1865 463 2840 -239 1315 -1103 2456
-2309 3050 -435 214 -892 349 -1385 410 -129 16 -692 29 -810 19z"/>
<path d="M28145 14843 c-113 -8 -380 -45 -520 -73 -1400 -280 -2572 -1251
-3110 -2575 -648 -1595 -274 -3415 950 -4630 730 -724 1672 -1150 2710 -1226
174 -13 553 -7 720 11 608 65 1215 264 1727 566 338 199 611 416 903 715 1037
1063 1439 2597 1060 4047 -330 1260 -1242 2317 -2442 2831 -401 171 -848 285
-1287 326 -144 14 -560 18 -711 8z"/>
<path d="M17633 11763 c-61 -131 -191 -409 -289 -618 -97 -209 -467 -998 -821
-1753 -353 -755 -643 -1377 -643 -1382 0 -5 80 -105 178 -222 583 -699 1140
-1434 1720 -2273 710 -1026 1265 -1979 1643 -2818 59 -132 86 -182 91 -170
125 328 519 1091 849 1646 676 1137 1631 2470 2601 3633 l168 202 -354 753
c-474 1013 -896 1916 -1049 2244 -259 557 -458 980 -467 989 -13 13 -824 -628
-1484 -1173 -137 -113 -256 -210 -263 -214 -9 -5 -93 58 -265 200 -287 237
-717 585 -888 719 -63 50 -224 177 -358 282 -134 106 -247 192 -251 192 -4 0
-57 -107 -118 -237z"/>
<path d="M21709 6162 c-14 -21 -89 -125 -166 -232 -190 -265 -455 -651 -460
-670 -7 -25 233 -346 462 -618 175 -209 173 -207 178 -202 2 3 79 118 172 255
93 138 232 340 310 450 78 110 145 206 149 213 5 8 -12 35 -47 75 -133 153
-325 406 -472 622 -48 72 -91 133 -94 137 -3 3 -18 -10 -32 -30z"/>
</g>
</svg>
